<svg width="16" height="18" viewBox="0 0 16 18" fill="none" xmlns="http://www.w3.org/2000/svg">
<path d="M7.99609 0.799805C8.23359 0.799805 8.43262 0.86795 8.61914 1.01172V1.01074L14.7715 5.78027L14.7812 5.78809C14.8753 5.85861 14.9552 5.94338 15.0215 6.04785L15.084 6.15918L15.085 6.16211C15.1619 6.31931 15.2001 6.48217 15.2002 6.66016V16.8301C15.2002 16.9017 15.1851 16.9617 15.1406 17.0254L15.0859 17.0908C14.998 17.1809 14.9332 17.2001 14.8574 17.2002H10.9893C10.9522 17.2001 10.9369 17.1938 10.9336 17.1924C10.9309 17.1913 10.9212 17.188 10.9043 17.1709H10.9053C10.8824 17.1474 10.8662 17.1266 10.8662 17.0547V11.4746C10.8661 11.0697 10.7431 10.6908 10.4902 10.375L10.373 10.2432C10.0403 9.90261 9.61228 9.72949 9.14258 9.72949H6.85742C6.38865 9.72949 5.96109 9.90191 5.62891 10.2422C5.29604 10.5815 5.1339 11.0106 5.13379 11.4746V17.0557C5.13379 17.0914 5.1296 17.1142 5.12305 17.1309L5.09668 17.1699C5.07937 17.1876 5.06931 17.1912 5.06641 17.1924C5.06324 17.1937 5.04818 17.2002 5.01172 17.2002H1.14258C1.08588 17.2002 1.03528 17.1895 0.976562 17.1465L0.914062 17.0908C0.825918 17.0005 0.799813 16.9256 0.799805 16.8301V6.66016C0.799856 6.52672 0.821146 6.40168 0.864258 6.28125L0.915039 6.16211C0.973297 6.04318 1.04468 5.9456 1.12988 5.86426L1.21973 5.78809L1.22852 5.78125L7.38281 1.00977L7.52344 0.916016C7.66484 0.837853 7.81839 0.799873 7.99609 0.799805Z" stroke="#9B9B9B" stroke-width="1.6"/>
</svg>
