<svg width="18" height="17" viewBox="0 0 18 17" fill="none" xmlns="http://www.w3.org/2000/svg">
<path d="M8.99955 14.2417L4.6369 16.8406C4.44417 16.9619 4.24268 17.0138 4.03243 16.9965C3.82219 16.9792 3.63822 16.9099 3.48053 16.7886C3.32285 16.6673 3.2002 16.5159 3.1126 16.3343C3.02499 16.1528 3.00747 15.949 3.06003 15.7231L4.2164 10.8112L0.353087 7.5107C0.17788 7.35476 0.0685506 7.177 0.0250992 6.97741C-0.0183521 6.77782 -0.00538684 6.58308 0.0639951 6.39319C0.133377 6.2033 0.238501 6.04737 0.379368 5.92539C0.520234 5.80342 0.712962 5.72545 0.957551 5.6915L6.05607 5.24969L8.02715 0.623726C8.11476 0.415817 8.25072 0.259886 8.43504 0.155931C8.61935 0.051977 8.80753 0 8.99955 0C9.19158 0 9.37975 0.051977 9.56407 0.155931C9.74839 0.259886 9.88435 0.415817 9.97195 0.623726L11.943 5.24969L17.0416 5.6915C17.2868 5.72615 17.4796 5.80411 17.6197 5.92539C17.7599 6.04667 17.865 6.20261 17.9351 6.39319C18.0052 6.58377 18.0185 6.77886 17.9751 6.97845C17.9316 7.17804 17.8219 7.35546 17.646 7.5107L13.7827 10.8112L14.9391 15.7231C14.9916 15.9483 14.9741 16.1521 14.8865 16.3343C14.7989 16.5166 14.6763 16.668 14.5186 16.7886C14.3609 16.9092 14.1769 16.9785 13.9667 16.9965C13.7564 17.0145 13.5549 16.9626 13.3622 16.8406L8.99955 14.2417Z" fill="#FFCC02"/>
</svg>
